<?xml version="1.0" encoding="UTF-8"?>
<svg xmlns="http://www.w3.org/2000/svg" xmlns:xlink="http://www.w3.org/1999/xlink" width="1200pt" height="1200pt" viewBox="0 0 1200 1200" version="1.1">
<g id="surface1">
<rect x="0" y="0" width="1200" height="1200" style="fill:rgb(59.214783%,83.920288%,65.097046%);fill-opacity:1;stroke:none;"/>
<rect x="0" y="0" width="1200" height="1200" style="fill:rgb(100%,100%,100%);fill-opacity:1;stroke:none;"/>
<path style=" stroke:none;fill-rule:evenodd;fill:rgb(59.999084%,84.70459%,100%);fill-opacity:1;" d="M 600 82.222656 C 185.777344 82.222656 82.222656 185.777344 82.222656 600 C 82.222656 1014.222656 185.777344 1117.777344 600 1117.777344 C 1014.222656 1117.777344 1117.777344 1014.222656 1117.777344 600 C 1117.777344 185.777344 1014.222656 82.222656 600 82.222656 Z M 600 82.222656 "/>
<path style=" stroke:none;fill-rule:evenodd;fill:rgb(100%,100%,100%);fill-opacity:1;" d="M 1065.8125 615.085938 C 998.984375 615.085938 944.3125 669.757813 944.3125 736.585938 C 944.3125 803.410156 998.984375 858.085938 1065.8125 858.085938 C 1132.636719 858.085938 1187.3125 803.410156 1187.3125 736.585938 C 1187.3125 669.757813 1132.636719 615.085938 1065.8125 615.085938 Z M 1065.8125 777.085938 C 1043.535156 777.085938 1025.3125 758.859375 1025.3125 736.585938 C 1025.3125 714.308594 1043.535156 696.085938 1065.8125 696.085938 C 1088.085938 696.085938 1106.3125 714.308594 1106.3125 736.585938 C 1106.3125 758.859375 1088.085938 777.085938 1065.8125 777.085938 Z M 598.03125 604.960938 L 683.082031 519.910156 C 701.308594 528.007813 719.535156 534.082031 741.808594 534.082031 C 764.085938 534.082031 782.308594 528.007813 800.535156 519.910156 L 887.609375 606.984375 C 899.761719 619.132813 922.035156 619.132813 936.210938 606.984375 C 948.359375 594.835938 948.359375 572.558594 936.210938 558.382813 L 849.136719 471.308594 C 857.234375 453.082031 863.308594 434.859375 863.308594 412.582031 C 863.308594 345.757813 808.632813 291.082031 741.808594 291.082031 C 674.984375 291.082031 620.308594 345.757813 620.308594 412.582031 C 620.308594 434.859375 626.382813 453.082031 636.507813 471.308594 L 551.457031 556.359375 C 539.308594 568.507813 539.308594 590.785156 551.457031 602.933594 C 563.609375 617.109375 583.859375 617.109375 598.03125 604.960938 Z M 741.808594 372.082031 C 764.085938 372.082031 782.308594 390.308594 782.308594 412.582031 C 782.308594 434.859375 764.085938 453.082031 741.808594 453.082031 C 719.535156 453.082031 701.308594 434.859375 701.308594 412.582031 C 701.308594 390.308594 719.535156 372.082031 741.808594 372.082031 Z M 417.804688 615.085938 C 350.980469 615.085938 296.304688 669.757813 296.304688 736.585938 C 296.304688 803.410156 350.980469 858.085938 417.804688 858.085938 C 484.632813 858.085938 539.308594 803.410156 539.308594 736.585938 C 539.308594 669.757813 484.632813 615.085938 417.804688 615.085938 Z M 417.804688 777.085938 C 395.53125 777.085938 377.304688 758.859375 377.304688 736.585938 C 377.304688 714.308594 395.53125 696.085938 417.804688 696.085938 C 440.082031 696.085938 458.304688 714.308594 458.304688 736.585938 C 458.304688 758.859375 440.082031 777.085938 417.804688 777.085938 Z M 887.609375 868.210938 L 800.535156 955.285156 C 782.308594 945.160156 764.085938 939.085938 741.808594 939.085938 C 719.535156 939.085938 701.308594 945.160156 683.082031 953.261719 L 596.007813 866.1875 C 583.859375 854.035156 561.582031 854.035156 547.40625 866.1875 C 535.257813 878.335938 535.257813 900.613281 547.40625 914.785156 L 634.484375 1001.863281 C 626.382813 1020.085938 620.308594 1038.3125 620.308594 1060.585938 C 620.308594 1127.414063 674.984375 1182.089844 741.808594 1182.089844 C 808.632813 1182.089844 863.308594 1127.414063 863.308594 1060.585938 C 863.308594 1038.3125 857.234375 1020.085938 847.109375 1001.863281 L 934.183594 914.785156 C 946.335938 902.636719 946.335938 880.363281 934.183594 868.210938 C 922.035156 854.035156 899.761719 854.035156 887.609375 868.210938 Z M 741.808594 1101.089844 C 719.535156 1101.089844 701.308594 1082.863281 701.308594 1060.585938 C 701.308594 1038.3125 719.535156 1020.085938 741.808594 1020.085938 C 764.085938 1020.085938 782.308594 1038.3125 782.308594 1060.585938 C 782.308594 1082.863281 764.085938 1101.089844 741.808594 1101.089844 Z M 741.808594 1101.089844 "/>
</g>
</svg>
